ply
format ascii 1.0
comment Created in Blender version 4.2.1 LTS
element vertex 240
property float x
property float y
property float z
element face 600
property list uchar uint vertex_indices
end_header
-5 -5 0
5 -5 0
-5 5 0
5 5 0
-5 4 0
-5 3 0
-5 2 0
-5 1 0
-5 0 0
-5 -1 0
-5 -2 0
-5 -3 0
-5 -4 0
-4 -5 0
-3 -5 0
-2 -5 0
-1 -5 0
0 -5 0
1 -5 0
2 -5 0
3 -5 0
4 -5 0
5 -4 0
5 -3 0
5 -2 0
5 -1 0
5 0 0
5 1 0
5 2 0
5 3 0
5 4 0
4 5 0
3 5 0
2 5 0
1 5 0
0 5 0
-1 5 0
-2 5 0
-3 5 0
-4 5 0
-4 -4 0
-4 -3 0
-4 -2 0
-4 -1 0
-4 0 0
-4 1 0
-4 2 0
-4 3 0
-4 4 0
-3 -4 0
-3 -3 0
-3 -2 0
-3 -1 0
-3 0 0
-3 1 0
-3 2 0
-3 3 0
-3 4 0
-2 -4 0
-2 -3 0
-2 -2 0
-2 -1 0
-2 0 0
-2 1 0
-2 2 0
-2 3 0
-2 4 0
-1 -4 0
-1 -3 0
-1 -2 0
-1 -1 0
-1 0 0
-1 1 0
-1 2 0
-1 3 0
-1 4 0
0 -4 0
0 -3 0
0 -2 0
0 -1 0
0 0 0
0 1 0
0 2 0
0 3 0
0 4 0
1 -4 0
1 -3 0
1 -2 0
1 -1 0
1 0 0
1 1 0
1 2 0
1 3 0
1 4 0
2 -4 0
2 -3 0
2 -2 0
2 -1 0
2 0 0
2 1 0
2 2 0
2 3 0
2 4 0
3 -4 0
3 -3 0
3 -2 0
3 -1 0
3 0 0
3 1 0
3 2 0
3 3 0
3 4 0
4 -4 0
4 -3 0
4 -2 0
4 -1 0
4 0 0
4 1 0
4 2 0
4 3 0
4 4 0
-5 -4 1
-5 -5 1
5 4 1
5 5 1
-5 4 1
-5 3 1
-5 2 1
-5 1 1
-5 0 1
-5 -1 1
-5 -2 1
-5 -3 1
-4 -5 1
-3 -5 1
-2 -5 1
-1 -5 1
0 -5 1
1 -5 1
2 -5 1
3 -5 1
4 -5 1
5 -4 1
5 -3 1
5 -2 1
5 -1 1
5 0 1
5 1 1
5 2 1
5 3 1
4 5 1
3 5 1
2 5 1
1 5 1
0 5 1
-1 5 1
-2 5 1
-3 5 1
-4 5 1
-4 4 1
-4 -4 1
-4 -3 1
-4 -2 1
-4 -1 1
-4 0 1
-4 1 1
-4 2 1
-4 3 1
-3 4 1
-3 -4 1
-3 -3 1
-3 -2 1
-3 -1 1
-3 0 1
-3 1 1
-3 2 1
-3 3 1
-2 4 1
-2 -4 1
-2 -3 1
-2 -2 1
-2 -1 1
-2 0 1
-2 1 1
-2 2 1
-2 3 1
-1 4 1
-1 -4 1
-1 -3 1
-1 -2 1
-1 -1 1
-1 0 1
-1 1 1
-1 2 1
-1 3 1
0 4 1
0 -4 1
0 -3 1
0 -2 1
0 -1 1
0 0 1
0 1 1
0 2 1
0 3 1
1 4 1
1 -4 1
1 -3 1
1 -2 1
1 -1 1
1 0 1
1 1 1
1 2 1
1 3 1
2 4 1
2 -4 1
2 -3 1
2 -2 1
2 -1 1
2 0 1
2 1 1
2 2 1
2 3 1
3 4 1
3 -4 1
3 -3 1
3 -2 1
3 -1 1
3 0 1
3 1 1
3 2 1
3 3 1
4 4 1
4 -4 1
4 -3 1
4 -2 1
4 -1 1
4 0 1
4 1 1
4 2 1
4 3 1
3 26 236 116
3 48 2 4
3 32 222 111
3 66 38 57
3 115 145 25
3 84 36 75
3 5 125 4
3 102 34 93
3 102 221 101
3 120 32 111
3 24 234 114
3 40 11 12
3 100 221 101
3 42 9 10
3 113 143 23
3 44 7 8
3 100 219 99
3 46 5 6
3 22 232 112
3 14 40 13
3 3 123 30
3 50 42 41
3 98 219 99
3 52 44 43
3 111 231 120
3 54 46 45
3 98 217 97
3 56 48 47
3 119 230 110
3 58 50 49
3 0 121 12
3 60 52 51
3 96 217 97
3 62 54 53
3 109 238 118
3 64 56 55
3 96 215 95
3 16 58 15
3 117 228 108
3 68 60 59
3 94 215 95
3 70 62 61
3 107 236 116
3 72 64 63
3 94 139 19
3 74 66 65
3 115 226 106
3 76 68 67
3 102 152 33
3 78 70 69
3 105 234 114
3 80 72 71
3 92 204 93
3 82 74 73
3 113 224 104
3 18 76 17
3 92 211 91
3 86 78 77
3 103 232 112
3 88 80 79
3 90 211 91
3 90 82 81
3 111 213 102
3 92 84 83
3 90 209 89
3 94 86 85
3 101 230 110
3 96 88 87
3 88 209 89
3 98 90 89
3 109 220 100
3 100 92 91
3 88 207 87
3 20 94 19
3 99 228 108
3 104 96 95
3 86 207 87
3 106 98 97
3 107 218 98
3 108 100 99
3 86 205 85
3 110 102 101
3 97 226 106
3 112 104 103
3 18 205 85
3 114 106 105
3 105 216 96
3 116 108 107
3 34 204 93
3 118 110 109
3 95 224 104
3 1 112 21
3 84 203 83
3 23 114 113
3 103 214 94
3 25 116 115
3 82 203 83
3 27 118 117
3 93 213 102
3 29 120 119
3 123 150 231
3 168 158 159
3 186 156 177
3 204 154 195
3 222 152 213
3 133 121 122
3 161 131 132
3 163 129 130
3 165 127 128
3 167 125 126
3 169 161 160
3 171 163 162
3 173 165 164
3 175 167 166
3 135 169 134
3 179 171 170
3 181 173 172
3 183 175 174
3 185 168 176
3 187 179 178
3 189 181 180
3 191 183 182
3 193 185 184
3 137 187 136
3 197 189 188
3 199 191 190
3 201 193 192
3 203 186 194
3 205 197 196
3 207 199 198
3 209 201 200
3 211 203 202
3 139 205 138
3 215 207 206
3 217 209 208
3 219 211 210
3 221 204 212
3 223 215 214
3 225 217 216
3 227 219 218
3 229 221 220
3 141 223 140
3 233 225 224
3 235 227 226
3 237 229 228
3 239 222 230
3 142 233 232
3 144 235 234
3 146 237 236
3 148 239 238
3 20 223 103
3 7 127 6
3 117 147 27
3 104 223 103
3 28 238 118
3 104 225 105
3 9 129 8
3 119 149 29
3 106 225 105
3 30 231 120
3 106 227 107
3 11 131 10
3 108 227 107
3 108 229 109
3 13 122 0
3 110 229 109
3 110 222 111
3 15 134 14
3 120 150 31
3 112 141 21
3 17 136 16
3 112 233 113
3 114 233 113
3 19 138 18
3 114 235 115
3 116 235 115
3 21 140 20
3 116 237 117
3 118 237 117
3 23 142 22
3 118 239 119
3 120 239 119
3 25 144 24
3 12 160 40
3 41 132 11
3 27 146 26
3 10 162 42
3 43 130 9
3 29 148 28
3 8 164 44
3 45 128 7
3 31 124 3
3 6 166 46
3 47 126 5
3 33 151 32
3 4 159 48
3 49 160 40
3 35 153 34
3 41 170 50
3 51 162 42
3 37 155 36
3 43 172 52
3 53 164 44
3 39 157 38
3 45 174 54
3 48 158 39
3 55 166 46
3 40 133 13
3 47 176 56
3 40 161 41
3 57 159 48
3 42 161 41
3 49 178 58
3 42 163 43
3 59 170 50
3 44 163 43
3 51 180 60
3 44 165 45
3 61 172 52
3 46 165 45
3 53 182 62
3 46 167 47
3 63 174 54
3 48 167 47
3 55 184 64
3 38 168 57
3 65 176 56
3 14 169 49
3 57 177 66
3 50 169 49
3 67 178 58
3 50 171 51
3 59 188 68
3 52 171 51
3 69 180 60
3 52 173 53
3 61 190 70
3 54 173 53
3 71 182 62
3 54 175 55
3 63 192 72
3 56 175 55
3 73 184 64
3 56 168 57
3 65 194 74
3 66 156 37
3 75 177 66
3 58 135 15
3 67 196 76
3 58 179 59
3 77 188 68
3 60 179 59
3 69 198 78
3 60 181 61
3 79 190 70
3 62 181 61
3 71 200 80
3 62 183 63
3 81 192 72
3 64 183 63
3 73 202 82
3 64 185 65
3 83 194 74
3 66 185 65
3 75 195 84
3 36 186 75
3 85 196 76
3 16 187 67
3 77 206 86
3 68 187 67
3 87 198 78
3 68 189 69
3 79 208 88
3 70 189 69
3 89 200 80
3 70 191 71
3 81 210 90
3 72 191 71
3 91 202 82
3 72 193 73
3 83 212 92
3 74 193 73
3 93 195 84
3 74 186 75
3 85 214 94
3 84 154 35
3 95 206 86
3 76 137 17
3 87 216 96
3 76 197 77
3 97 208 88
3 78 197 77
3 89 218 98
3 78 199 79
3 99 210 90
3 80 199 79
3 91 220 100
3 80 201 81
3 101 212 92
3 82 201 81
3 26 146 236
3 48 39 2
3 32 151 222
3 66 37 38
3 115 235 145
3 84 35 36
3 5 126 125
3 102 33 34
3 102 213 221
3 120 31 32
3 24 144 234
3 40 41 11
3 100 220 221
3 42 43 9
3 113 233 143
3 44 45 7
3 100 220 219
3 46 47 5
3 22 142 232
3 14 49 40
3 3 124 123
3 50 51 42
3 98 218 219
3 52 53 44
3 111 222 231
3 54 55 46
3 98 218 217
3 56 57 48
3 119 239 230
3 58 59 50
3 0 122 121
3 60 61 52
3 96 216 217
3 62 63 54
3 109 229 238
3 64 65 56
3 96 216 215
3 16 67 58
3 117 237 228
3 68 69 60
3 94 214 215
3 70 71 62
3 107 227 236
3 72 73 64
3 94 214 139
3 74 75 66
3 115 235 226
3 76 77 68
3 102 213 152
3 78 79 70
3 105 225 234
3 80 81 72
3 92 212 204
3 82 83 74
3 113 233 224
3 18 85 76
3 92 212 211
3 86 87 78
3 103 223 232
3 88 89 80
3 90 210 211
3 90 91 82
3 111 222 213
3 92 93 84
3 90 210 209
3 94 95 86
3 101 221 230
3 96 97 88
3 88 208 209
3 98 99 90
3 109 229 220
3 100 101 92
3 88 208 207
3 20 103 94
3 99 219 228
3 104 105 96
3 86 206 207
3 106 107 98
3 107 227 218
3 108 109 100
3 86 206 205
3 110 111 102
3 97 217 226
3 112 113 104
3 18 138 205
3 114 115 106
3 105 225 216
3 116 117 108
3 34 153 204
3 118 119 110
3 95 215 224
3 1 22 112
3 84 195 203
3 23 24 114
3 103 223 214
3 25 26 116
3 82 202 203
3 27 28 118
3 93 204 213
3 29 30 120
3 123 124 150
3 168 157 158
3 186 155 156
3 204 153 154
3 222 151 152
3 133 160 121
3 161 162 131
3 163 164 129
3 165 166 127
3 167 159 125
3 169 170 161
3 171 172 163
3 173 174 165
3 175 176 167
3 135 178 169
3 179 180 171
3 181 182 173
3 183 184 175
3 185 177 168
3 187 188 179
3 189 190 181
3 191 192 183
3 193 194 185
3 137 196 187
3 197 198 189
3 199 200 191
3 201 202 193
3 203 195 186
3 205 206 197
3 207 208 199
3 209 210 201
3 211 212 203
3 139 214 205
3 215 216 207
3 217 218 209
3 219 220 211
3 221 213 204
3 223 224 215
3 225 226 217
3 227 228 219
3 229 230 221
3 141 232 223
3 233 234 225
3 235 236 227
3 237 238 229
3 239 231 222
3 142 143 233
3 144 145 235
3 146 147 237
3 148 149 239
3 20 140 223
3 7 128 127
3 117 237 147
3 104 224 223
3 28 148 238
3 104 224 225
3 9 130 129
3 119 239 149
3 106 226 225
3 30 123 231
3 106 226 227
3 11 132 131
3 108 228 227
3 108 228 229
3 13 133 122
3 110 230 229
3 110 230 222
3 15 135 134
3 120 231 150
3 112 232 141
3 17 137 136
3 112 232 233
3 114 234 233
3 19 139 138
3 114 234 235
3 116 236 235
3 21 141 140
3 116 236 237
3 118 238 237
3 23 143 142
3 118 238 239
3 120 231 239
3 25 145 144
3 12 121 160
3 41 161 132
3 27 147 146
3 10 131 162
3 43 163 130
3 29 149 148
3 8 129 164
3 45 165 128
3 31 150 124
3 6 127 166
3 47 167 126
3 33 152 151
3 4 125 159
3 49 169 160
3 35 154 153
3 41 161 170
3 51 171 162
3 37 156 155
3 43 163 172
3 53 173 164
3 39 158 157
3 45 165 174
3 48 159 158
3 55 175 166
3 40 160 133
3 47 167 176
3 40 160 161
3 57 168 159
3 42 162 161
3 49 169 178
3 42 162 163
3 59 179 170
3 44 164 163
3 51 171 180
3 44 164 165
3 61 181 172
3 46 166 165
3 53 173 182
3 46 166 167
3 63 183 174
3 48 159 167
3 55 175 184
3 38 157 168
3 65 185 176
3 14 134 169
3 57 168 177
3 50 170 169
3 67 187 178
3 50 170 171
3 59 179 188
3 52 172 171
3 69 189 180
3 52 172 173
3 61 181 190
3 54 174 173
3 71 191 182
3 54 174 175
3 63 183 192
3 56 176 175
3 73 193 184
3 56 176 168
3 65 185 194
3 66 177 156
3 75 186 177
3 58 178 135
3 67 187 196
3 58 178 179
3 77 197 188
3 60 180 179
3 69 189 198
3 60 180 181
3 79 199 190
3 62 182 181
3 71 191 200
3 62 182 183
3 81 201 192
3 64 184 183
3 73 193 202
3 64 184 185
3 83 203 194
3 66 177 185
3 75 186 195
3 36 155 186
3 85 205 196
3 16 136 187
3 77 197 206
3 68 188 187
3 87 207 198
3 68 188 189
3 79 199 208
3 70 190 189
3 89 209 200
3 70 190 191
3 81 201 210
3 72 192 191
3 91 211 202
3 72 192 193
3 83 203 212
3 74 194 193
3 93 204 195
3 74 194 186
3 85 205 214
3 84 195 154
3 95 215 206
3 76 196 137
3 87 207 216
3 76 196 197
3 97 217 208
3 78 198 197
3 89 209 218
3 78 198 199
3 99 219 210
3 80 200 199
3 91 211 220
3 80 200 201
3 101 221 212
3 82 202 201
