ply
format ascii 1.0
comment Created in Blender version 4.2.1 LTS
element vertex 81
property float x
property float y
property float z
element face 128
property list uchar uint vertex_indices
end_header
-1 -1 0
1 -1 0
-1 1 0
1 1 0
-1 0.75 0
-1 0.5 0
-1 0.25 0
-1 0 0
-1 -0.25 0
-1 -0.5 0
-1 -0.75 0
-0.75 -1 0
-0.5 -1 0
-0.25 -1 0
0 -1 0
0.25 -1 0
0.5 -1 0
0.75 -1 0
1 -0.75 0
1 -0.5 0
1 -0.25 0
1 0 0
1 0.25 0
1 0.5 0
1 0.75 0
0.75 1 0
0.5 1 0
0.25 1 0
0 1 0
-0.25 0.99999964 0.0035296245
-0.5 1 0
-0.75 1 0
-0.75 -0.75 0.0155527545
-0.75 -0.5 0
-0.75000393 -0.2502804 0.039202657
-0.7500238 -0.00013947827 0.089254156
-0.75049376 0.24952726 0.06516125
-0.75 0.5 0
-0.75 0.75 0
-0.5 -0.75 0
-0.49980727 -0.50008327 0.051425744
-0.5 -0.25 0
-0.50000125 -1.2962219e-06 0.001454933
-0.5000863 0.2483006 0.13619494
-0.50084877 0.5029376 0.29363015
-0.50139695 0.7541886 0.13678949
-0.25 -0.75 0.036044274
-0.25 -0.5 0
-0.25 -0.25 0
-0.2508956 -0.0013075359 0.12742099
-0.25004032 0.24980573 0.07084648
-0.24827445 0.5006318 0.07546181
-0.24966131 0.750916 0.06736425
8.277294e-05 -0.75 0.0626623
-0.0005948845 -0.49972203 0.05682481
0.00011307045 -0.25011307 0.042210188
0.0006709435 -0.00032667746 0.06617525
0.00049299735 0.25016874 0.08230454
4.0301125e-05 0.5000344 0.039982717
0.0009489327 0.7511745 0.10481292
0.24990626 -0.75009376 0.04557381
0.24987109 -0.49962556 0.07358732
0.2500551 -0.25051758 0.096007556
0.250247 -1.720983e-05 0.030443897
0.24994904 0.24994867 0.013344962
0.25034294 0.5009055 0.10912818
0.25 0.75 0
0.5 -0.75 0
0.4999515 -0.50015956 0.093926705
0.5 -0.24984783 0.036990847
0.50033355 -7.895251e-05 0.08005472
0.5001339 0.24937911 0.06507563
0.5 0.5 0.054736115
0.5 0.75 0
0.7502159 -0.7502159 0.06748588
0.7515568 -0.49997887 0.17407322
0.7501728 -0.24997395 0.017353293
0.75 0 0
0.75092417 0.2492088 0.06436099
0.7508928 0.50033337 0.07486065
0.75033844 0.75033844 0.09045023
3 24 25 80
3 38 2 4
3 38 30 31
3 52 30 45
3 52 28 29
3 66 28 59
3 73 27 66
3 73 25 26
3 11 10 0
3 10 33 9
3 33 8 9
3 34 7 8
3 7 36 6
3 6 37 5
3 37 4 5
3 11 39 32
3 39 33 32
3 33 41 34
3 34 42 35
3 35 43 36
3 43 37 36
3 37 45 38
3 13 39 12
3 39 47 40
3 47 41 40
3 48 42 41
3 49 43 42
3 43 51 44
3 51 45 44
3 14 46 13
3 46 54 47
3 47 55 48
3 48 56 49
3 56 50 49
3 57 51 50
3 51 59 52
3 14 60 53
3 53 61 54
3 61 55 54
3 55 63 56
3 56 64 57
3 64 58 57
3 65 59 58
3 15 67 60
3 60 68 61
3 68 62 61
3 69 63 62
3 63 71 64
3 64 72 65
3 72 66 65
3 17 67 16
3 74 68 67
3 68 76 69
3 69 77 70
3 70 78 71
3 78 72 71
3 72 80 73
3 17 18 74
3 74 19 75
3 19 76 75
3 20 77 76
3 77 22 78
3 78 23 79
3 79 24 80
3 24 3 25
3 38 31 2
3 38 45 30
3 52 29 30
3 52 59 28
3 66 27 28
3 73 26 27
3 73 80 25
3 11 32 10
3 10 32 33
3 33 34 8
3 34 35 7
3 7 35 36
3 6 36 37
3 37 38 4
3 11 12 39
3 39 40 33
3 33 40 41
3 34 41 42
3 35 42 43
3 43 44 37
3 37 44 45
3 13 46 39
3 39 46 47
3 47 48 41
3 48 49 42
3 49 50 43
3 43 50 51
3 51 52 45
3 14 53 46
3 46 53 54
3 47 54 55
3 48 55 56
3 56 57 50
3 57 58 51
3 51 58 59
3 14 15 60
3 53 60 61
3 61 62 55
3 55 62 63
3 56 63 64
3 64 65 58
3 65 66 59
3 15 16 67
3 60 67 68
3 68 69 62
3 69 70 63
3 63 70 71
3 64 71 72
3 72 73 66
3 17 74 67
3 74 75 68
3 68 75 76
3 69 76 77
3 70 77 78
3 78 79 72
3 72 79 80
3 17 1 18
3 74 18 19
3 19 20 76
3 20 21 77
3 77 21 22
3 78 22 23
3 79 23 24
